<?xml version="1.0" encoding="utf-8"?>
<!-- Generator: Adobe Illustrator 27.3.1, SVG Export Plug-In . SVG Version: 6.00 Build 0)  -->
<svg version="1.1" id="Layer_1" xmlns="http://www.w3.org/2000/svg" xmlns:xlink="http://www.w3.org/1999/xlink" x="0px" y="0px"
	 viewBox="0 0 279.32 121.88" style="enable-background:new 0 0 279.32 121.88;" xml:space="preserve">
<style type="text/css">
	.st0{display:none;fill:#0D0C0C;}
	.st1{fill:#50B848;}
	.st2{fill:#FDFEFF;}
</style>
<rect x="-40" class="st0" width="360" height="121.88"/>
<g>
	<g>
		<g>
			<g>
				<polygon class="st1" points="88.27,25.71 88.27,67.53 99.69,67.53 99.69,43.46 118.9,67.53 131.05,67.53 150.75,43.7 
					150.75,67.53 183.81,67.53 183.81,56.83 162.17,57.08 162.41,49.78 178.22,50.03 177.97,41.52 162.41,41.76 162.41,33.98 
					183.81,33.98 183.81,25.71 150.26,25.71 131.3,50.03 131.3,25.71 118.9,25.71 118.9,50.51 100.18,25.71 				"/>
			</g>
			<g>
				<rect x="233.16" y="39.81" class="st1" width="30.63" height="9.72"/>
			</g>
		</g>
		<g>
			<g>
				<polygon class="st2" points="17.04,83.82 78.06,25.71 78.06,66.8 65.42,66.8 65.42,52.46 33.08,83.82 				"/>
			</g>
			<g>
				<polygon class="st2" points="195.72,82.87 212.49,64.4 221,74.61 268.41,74.61 260.63,66.1 230,66.1 213.95,47.87 188.18,74.61 
									"/>
			</g>
			<g>
				<polygon class="st2" points="195.72,9.97 212.49,28.45 221,18.24 268.41,18.24 260.63,26.75 230,26.75 213.95,44.98 
					188.18,18.24 				"/>
			</g>
			<g>
				<polygon class="st2" points="47.55,84.3 147.83,84.3 147.83,76.04 56.42,76.04 				"/>
			</g>
		</g>
	</g>
	<g>
		<path class="st1" d="M7.83,111.9l8.76-15.48h3.47l8.88,15.48h-4.04l-1.86-3.38h-9.81l-1.8,3.38H7.83z M14.76,105.72h6.78
			l-3.34-6.3L14.76,105.72z"/>
		<path class="st1" d="M39.54,111.9V96.42H42l10.9,9.12c0.37,0.3,0.7,0.59,0.98,0.86s0.54,0.54,0.78,0.83
			c-0.06-0.87-0.1-1.48-0.12-1.84s-0.03-0.64-0.03-0.83v-8.13h3.24v15.48h-2.46l-11.36-9.56c-0.27-0.24-0.51-0.46-0.72-0.66
			c-0.2-0.19-0.4-0.4-0.57-0.6c0.05,0.48,0.09,0.93,0.11,1.35c0.02,0.42,0.04,0.79,0.04,1.11v8.36H39.54z"/>
		<path class="st1" d="M69.79,111.9V96.42h2.46l10.9,9.12c0.37,0.3,0.7,0.59,0.98,0.86s0.54,0.54,0.78,0.83
			c-0.06-0.87-0.1-1.48-0.12-1.84s-0.03-0.64-0.03-0.83v-8.13H88v15.48h-2.46l-11.36-9.56c-0.27-0.24-0.51-0.46-0.72-0.66
			c-0.2-0.19-0.4-0.4-0.57-0.6c0.05,0.48,0.09,0.93,0.11,1.35c0.02,0.42,0.04,0.79,0.04,1.11v8.36H69.79z"/>
		<path class="st1" d="M101.15,111.9V96.42H117v2.64h-12.24v3.46h7.15v2.64h-7.15v3.84h12.39v2.91H101.15z"/>
		<path class="st1" d="M126.45,111.9l7.34-7.95l-7.47-7.53h4.77l4.95,5.26l4.7-5.26h4.14l-6.75,7.12l8.35,8.36h-4.89l-5.67-6
			l-5.23,6H126.45z"/>
		<path class="st1" d="M154.66,111.9V96.42h15.85v2.64h-12.24v3.46h7.15v2.64h-7.15v3.84h12.39v2.91H154.66z"/>
		<path class="st2" d="M181.18,107.26h0.54c0.26,0,0.45,0.08,0.56,0.23s0.16,0.44,0.16,0.87v2.43c0,0.47-0.06,0.77-0.18,0.91
			s-0.48,0.21-1.08,0.21h-2.68c-0.26,0-0.45-0.08-0.56-0.23s-0.16-0.45-0.16-0.88v-2.43c0-0.46,0.06-0.76,0.18-0.89
			s0.48-0.21,1.08-0.21H181.18z"/>
		<path class="st2" d="M191.81,111.9V96.42h13.24c1.23,0,2.12,0.24,2.67,0.71c0.55,0.47,0.83,1.24,0.83,2.29v3.63
			c0,1.04-0.28,1.81-0.83,2.29c-0.55,0.48-1.44,0.72-2.67,0.72h-2.02l7.15,5.84h-5.17l-6.24-5.84h-3.41v5.84H191.81z M203.46,99.1
			h-8.1v4.31h8.1c0.62,0,1.05-0.09,1.28-0.27c0.23-0.18,0.34-0.5,0.34-0.96v-1.86c0-0.45-0.12-0.76-0.34-0.95
			C204.51,99.2,204.08,99.1,203.46,99.1z"/>
		<path class="st2" d="M215.73,96.42v12.57H226V96.42h3.59v11.82c0,1.42-0.26,2.38-0.79,2.89s-1.54,0.77-3.05,0.77h-9.78
			c-1.49,0-2.51-0.26-3.04-0.77s-0.8-1.48-0.8-2.89V96.42H215.73z"/>
		<path class="st2" d="M234.72,111.9V96.42h15.85v2.64h-12.24v3.46h7.15v2.64h-7.15v3.84h12.39v2.91H234.72z"/>
		<path class="st2" d="M264.35,99.19v12.71h-3.6V99.19h-7.1v-2.77h17.84v2.77H264.35z"/>
	</g>
</g>
<g>
	<g>
		<g>
			<g>
				<polygon class="st1" points="88.27,167.67 88.27,209.49 99.69,209.49 99.69,185.42 118.9,209.49 131.05,209.49 150.75,185.66 
					150.75,209.49 183.81,209.49 183.81,198.79 162.17,199.03 162.41,191.74 178.22,191.98 177.97,183.47 162.41,183.72 
					162.41,175.94 183.81,175.94 183.81,167.67 150.26,167.67 131.3,191.98 131.3,167.67 118.9,167.67 118.9,192.47 100.18,167.67 
									"/>
			</g>
			<g>
				<rect x="233.16" y="181.77" class="st1" width="30.63" height="9.72"/>
			</g>
		</g>
		<g>
			<g>
				<polygon points="17.04,225.77 78.06,167.67 78.06,208.76 65.42,208.76 65.42,194.41 33.08,225.77 				"/>
			</g>
			<g>
				<polygon points="195.72,224.83 212.49,206.36 221,216.57 268.41,216.57 260.63,208.06 230,208.06 213.95,189.83 188.18,216.57 
									"/>
			</g>
			<g>
				<polygon points="195.72,151.93 212.49,170.4 221,160.19 268.41,160.19 260.63,168.7 230,168.7 213.95,186.94 188.18,160.19 				
					"/>
			</g>
			<g>
				<polygon points="47.55,226.26 147.83,226.26 147.83,218 56.42,218 				"/>
			</g>
		</g>
	</g>
	<g>
		<path class="st1" d="M7.83,253.86l8.76-15.48h3.47l8.88,15.48h-4.04l-1.86-3.38h-9.81l-1.8,3.38H7.83z M14.76,247.68h6.78
			l-3.34-6.3L14.76,247.68z"/>
		<path class="st1" d="M39.54,253.86v-15.48H42l10.9,9.12c0.37,0.3,0.7,0.59,0.98,0.86s0.54,0.54,0.78,0.83
			c-0.06-0.87-0.1-1.48-0.12-1.84s-0.03-0.64-0.03-0.83v-8.13h3.24v15.48h-2.46l-11.36-9.56c-0.27-0.24-0.51-0.46-0.72-0.66
			c-0.2-0.19-0.4-0.4-0.57-0.6c0.05,0.48,0.09,0.93,0.11,1.35c0.02,0.42,0.04,0.79,0.04,1.11v8.36H39.54z"/>
		<path class="st1" d="M69.79,253.86v-15.48h2.46l10.9,9.12c0.37,0.3,0.7,0.59,0.98,0.86s0.54,0.54,0.78,0.83
			c-0.06-0.87-0.1-1.48-0.12-1.84s-0.03-0.64-0.03-0.83v-8.13H88v15.48h-2.46l-11.36-9.56c-0.27-0.24-0.51-0.46-0.72-0.66
			c-0.2-0.19-0.4-0.4-0.57-0.6c0.05,0.48,0.09,0.93,0.11,1.35c0.02,0.42,0.04,0.79,0.04,1.11v8.36H69.79z"/>
		<path class="st1" d="M101.15,253.86v-15.48H117v2.64h-12.24v3.46h7.15v2.64h-7.15v3.84h12.39v2.91H101.15z"/>
		<path class="st1" d="M126.45,253.86l7.34-7.95l-7.47-7.53h4.77l4.95,5.26l4.7-5.26h4.14l-6.75,7.12l8.35,8.36h-4.89l-5.67-6
			l-5.23,6H126.45z"/>
		<path class="st1" d="M154.66,253.86v-15.48h15.85v2.64h-12.24v3.46h7.15v2.64h-7.15v3.84h12.39v2.91H154.66z"/>
		<path d="M181.18,249.22h0.54c0.26,0,0.45,0.08,0.56,0.23s0.16,0.44,0.16,0.87v2.43c0,0.47-0.06,0.77-0.18,0.91
			s-0.48,0.21-1.08,0.21h-2.68c-0.26,0-0.45-0.08-0.56-0.23s-0.16-0.45-0.16-0.88v-2.43c0-0.46,0.06-0.76,0.18-0.89
			s0.48-0.21,1.08-0.21H181.18z"/>
		<path d="M191.81,253.86v-15.48h13.24c1.23,0,2.12,0.24,2.67,0.71c0.55,0.47,0.83,1.24,0.83,2.29v3.63c0,1.04-0.28,1.81-0.83,2.29
			c-0.55,0.48-1.44,0.72-2.67,0.72h-2.02l7.15,5.84h-5.17l-6.24-5.84h-3.41v5.84H191.81z M203.46,241.06h-8.1v4.31h8.1
			c0.62,0,1.05-0.09,1.28-0.27c0.23-0.18,0.34-0.5,0.34-0.96v-1.86c0-0.45-0.12-0.76-0.34-0.95
			C204.51,241.15,204.08,241.06,203.46,241.06z"/>
		<path d="M215.73,238.38v12.57H226v-12.57h3.59v11.82c0,1.42-0.26,2.38-0.79,2.89s-1.54,0.77-3.05,0.77h-9.78
			c-1.49,0-2.51-0.26-3.04-0.77s-0.8-1.48-0.8-2.89v-11.82H215.73z"/>
		<path d="M234.72,253.86v-15.48h15.85v2.64h-12.24v3.46h7.15v2.64h-7.15v3.84h12.39v2.91H234.72z"/>
		<path d="M264.35,241.15v12.71h-3.6v-12.71h-7.1v-2.77h17.84v2.77H264.35z"/>
	</g>
</g>
<text transform="matrix(1 0 0 1 -334.2339 -187.8457)" style="font-family:'MyriadPro-Regular'; font-size:12px;">Text </text>
<text transform="matrix(1 0 0 1 116.6597 -203.165)" style="font-family:'MyriadPro-Regular'; font-size:12px;">Object</text>
</svg>
