<?xml version="1.0" encoding="UTF-8" standalone="no"?>
<!-- Generator: Adobe Illustrator 27.3.1, SVG Export Plug-In . SVG Version: 6.00 Build 0)  -->

<svg
   version="1.1"
   id="Layer_1"
   x="0px"
   y="0px"
   viewBox="0 0 280.99999 108.88"
   xml:space="preserve"
   sodipodi:docname="white logo.svg"
   width="281"
   height="108.88"
   inkscape:export-filename="annexe-white.png"
   inkscape:export-xdpi="279.07776"
   inkscape:export-ydpi="279.07776"
   inkscape:version="1.2.2 (1:1.2.2+202305151914+b0a8486541)"
   xmlns:inkscape="http://www.inkscape.org/namespaces/inkscape"
   xmlns:sodipodi="http://sodipodi.sourceforge.net/DTD/sodipodi-0.dtd"
   xmlns="http://www.w3.org/2000/svg"
   xmlns:svg="http://www.w3.org/2000/svg"><defs
   id="defs125" /><sodipodi:namedview
   id="namedview123"
   pagecolor="#ffffff"
   bordercolor="#000000"
   borderopacity="0.25"
   inkscape:showpageshadow="2"
   inkscape:pageopacity="0.0"
   inkscape:pagecheckerboard="0"
   inkscape:deskcolor="#d1d1d1"
   showgrid="false"
   inkscape:zoom="1.8416931"
   inkscape:cx="163.70806"
   inkscape:cy="71.40169"
   inkscape:window-width="1858"
   inkscape:window-height="1011"
   inkscape:window-x="0"
   inkscape:window-y="0"
   inkscape:window-maximized="1"
   inkscape:current-layer="Layer_1" />
<style
   type="text/css"
   id="style2">
	.st0{display:none;fill:#0D0C0C;}
	.st1{fill:#50B848;}
	.st2{fill:#FDFEFF;}
</style>
<rect
   x="-40"
   class="st0"
   width="360"
   height="121.88"
   id="rect4"
   y="0" />
<g
   id="g60"
   transform="matrix(1.0509779,0,0,1.0509779,-5.839999,-9.7049406)">
	<g
   id="g34">
		<g
   id="g14">
			<g
   id="g8">
				<polygon
   class="st1"
   points="131.3,50.03 131.3,25.71 118.9,25.71 118.9,50.51 100.18,25.71 88.27,25.71 88.27,67.53 99.69,67.53 99.69,43.46 118.9,67.53 131.05,67.53 150.75,43.7 150.75,67.53 183.81,67.53 183.81,56.83 162.17,57.08 162.41,49.78 178.22,50.03 177.97,41.52 162.41,41.76 162.41,33.98 183.81,33.98 183.81,25.71 150.26,25.71 "
   id="polygon6" />
			</g>
			<g
   id="g12">
				<rect
   x="233.16"
   y="39.810001"
   class="st1"
   width="30.629999"
   height="9.7200003"
   id="rect10" />
			</g>
		</g>
		<g
   id="g32">
			<g
   id="g18">
				<polygon
   class="st2"
   points="78.06,25.71 78.06,66.8 65.42,66.8 65.42,52.46 33.08,83.82 17.04,83.82 "
   id="polygon16" />
			</g>
			<g
   id="g22">
				<polygon
   class="st2"
   points="268.41,74.61 260.63,66.1 230,66.1 213.95,47.87 188.18,74.61 195.72,82.87 212.49,64.4 221,74.61 "
   id="polygon20" />
			</g>
			<g
   id="g26">
				<polygon
   class="st2"
   points="268.41,18.24 260.63,26.75 230,26.75 213.95,44.98 188.18,18.24 195.72,9.97 212.49,28.45 221,18.24 "
   id="polygon24" />
			</g>
			<g
   id="g30">
				<polygon
   class="st2"
   points="56.42,76.04 47.55,84.3 147.83,84.3 147.83,76.04 "
   id="polygon28" />
			</g>
		</g>
	</g>
	<g
   id="g58">
		<path
   class="st1"
   d="m 7.83,111.9 8.76,-15.48 h 3.47 l 8.88,15.48 H 24.9 l -1.86,-3.38 h -9.81 l -1.8,3.38 z m 6.93,-6.18 h 6.78 l -3.34,-6.3 z"
   id="path36" />
		<path
   class="st1"
   d="M 39.54,111.9 V 96.42 H 42 l 10.9,9.12 c 0.37,0.3 0.7,0.59 0.98,0.86 0.28,0.27 0.54,0.54 0.78,0.83 -0.06,-0.87 -0.1,-1.48 -0.12,-1.84 -0.02,-0.36 -0.03,-0.64 -0.03,-0.83 v -8.13 h 3.24 v 15.48 h -2.46 l -11.36,-9.56 c -0.27,-0.24 -0.51,-0.46 -0.72,-0.66 -0.2,-0.19 -0.4,-0.4 -0.57,-0.6 0.05,0.48 0.09,0.93 0.11,1.35 0.02,0.42 0.04,0.79 0.04,1.11 v 8.36 h -3.25 z"
   id="path38" />
		<path
   class="st1"
   d="M 69.79,111.9 V 96.42 h 2.46 l 10.9,9.12 c 0.37,0.3 0.7,0.59 0.98,0.86 0.28,0.27 0.54,0.54 0.78,0.83 -0.06,-0.87 -0.1,-1.48 -0.12,-1.84 -0.02,-0.36 -0.03,-0.64 -0.03,-0.83 V 96.43 H 88 v 15.48 h -2.46 l -11.36,-9.56 c -0.27,-0.24 -0.51,-0.46 -0.72,-0.66 -0.2,-0.19 -0.4,-0.4 -0.57,-0.6 0.05,0.48 0.09,0.93 0.11,1.35 0.02,0.42 0.04,0.79 0.04,1.11 v 8.36 h -3.25 z"
   id="path40" />
		<path
   class="st1"
   d="M 101.15,111.9 V 96.42 H 117 v 2.64 h -12.24 v 3.46 h 7.15 v 2.64 h -7.15 V 109 h 12.39 v 2.91 h -16 z"
   id="path42" />
		<path
   class="st1"
   d="m 126.45,111.9 7.34,-7.95 -7.47,-7.53 h 4.77 l 4.95,5.26 4.7,-5.26 h 4.14 l -6.75,7.12 8.35,8.36 h -4.89 l -5.67,-6 -5.23,6 z"
   id="path44" />
		<path
   class="st1"
   d="M 154.66,111.9 V 96.42 h 15.85 v 2.64 h -12.24 v 3.46 h 7.15 v 2.64 h -7.15 V 109 h 12.39 v 2.91 h -16 z"
   id="path46" />
		<path
   class="st2"
   d="m 181.18,107.26 h 0.54 c 0.26,0 0.45,0.08 0.56,0.23 0.11,0.15 0.16,0.44 0.16,0.87 v 2.43 c 0,0.47 -0.06,0.77 -0.18,0.91 -0.12,0.14 -0.48,0.21 -1.08,0.21 h -2.68 c -0.26,0 -0.45,-0.08 -0.56,-0.23 -0.11,-0.15 -0.16,-0.45 -0.16,-0.88 v -2.43 c 0,-0.46 0.06,-0.76 0.18,-0.89 0.12,-0.13 0.48,-0.21 1.08,-0.21 h 2.14 z"
   id="path48" />
		<path
   class="st2"
   d="M 191.81,111.9 V 96.42 h 13.24 c 1.23,0 2.12,0.24 2.67,0.71 0.55,0.47 0.83,1.24 0.83,2.29 v 3.63 c 0,1.04 -0.28,1.81 -0.83,2.29 -0.55,0.48 -1.44,0.72 -2.67,0.72 h -2.02 l 7.15,5.84 h -5.17 l -6.24,-5.84 h -3.41 v 5.84 z m 11.65,-12.8 h -8.1 v 4.31 h 8.1 c 0.62,0 1.05,-0.09 1.28,-0.27 0.23,-0.18 0.34,-0.5 0.34,-0.96 v -1.86 c 0,-0.45 -0.12,-0.76 -0.34,-0.95 -0.23,-0.17 -0.66,-0.27 -1.28,-0.27 z"
   id="path50" />
		<path
   class="st2"
   d="m 215.73,96.42 v 12.57 H 226 V 96.42 h 3.59 v 11.82 c 0,1.42 -0.26,2.38 -0.79,2.89 -0.53,0.51 -1.54,0.77 -3.05,0.77 h -9.78 c -1.49,0 -2.51,-0.26 -3.04,-0.77 -0.53,-0.51 -0.8,-1.48 -0.8,-2.89 V 96.42 Z"
   id="path52" />
		<path
   class="st2"
   d="M 234.72,111.9 V 96.42 h 15.85 v 2.64 h -12.24 v 3.46 h 7.15 v 2.64 h -7.15 V 109 h 12.39 v 2.91 h -16 z"
   id="path54" />
		<path
   class="st2"
   d="m 264.35,99.19 v 12.71 h -3.6 V 99.19 h -7.1 v -2.77 h 17.84 v 2.77 z"
   id="path56" />
	</g>
</g>
<g
   id="g116">
	<g
   id="g90">
		<g
   id="g70">
			<g
   id="g64">
				<polygon
   class="st1"
   points="178.22,191.98 177.97,183.47 162.41,183.72 162.41,175.94 183.81,175.94 183.81,167.67 150.26,167.67 131.3,191.98 131.3,167.67 118.9,167.67 118.9,192.47 100.18,167.67 88.27,167.67 88.27,209.49 99.69,209.49 99.69,185.42 118.9,209.49 131.05,209.49 150.75,185.66 150.75,209.49 183.81,209.49 183.81,198.79 162.17,199.03 162.41,191.74 "
   id="polygon62" />
			</g>
			<g
   id="g68">
				<rect
   x="233.16"
   y="181.77"
   class="st1"
   width="30.629999"
   height="9.7200003"
   id="rect66" />
			</g>
		</g>
		<g
   id="g88">
			<g
   id="g74">
				<polygon
   points="17.04,225.77 78.06,167.67 78.06,208.76 65.42,208.76 65.42,194.41 33.08,225.77 "
   id="polygon72" />
			</g>
			<g
   id="g78">
				<polygon
   points="260.63,208.06 230,208.06 213.95,189.83 188.18,216.57 195.72,224.83 212.49,206.36 221,216.57 268.41,216.57 "
   id="polygon76" />
			</g>
			<g
   id="g82">
				<polygon
   points="260.63,168.7 230,168.7 213.95,186.94 188.18,160.19 195.72,151.93 212.49,170.4 221,160.19 268.41,160.19 "
   id="polygon80" />
			</g>
			<g
   id="g86">
				<polygon
   points="47.55,226.26 147.83,226.26 147.83,218 56.42,218 "
   id="polygon84" />
			</g>
		</g>
	</g>
	<g
   id="g114">
		<path
   class="st1"
   d="m 7.83,253.86 8.76,-15.48 h 3.47 l 8.88,15.48 H 24.9 l -1.86,-3.38 h -9.81 l -1.8,3.38 z m 6.93,-6.18 h 6.78 l -3.34,-6.3 z"
   id="path92" />
		<path
   class="st1"
   d="M 39.54,253.86 V 238.38 H 42 l 10.9,9.12 c 0.37,0.3 0.7,0.59 0.98,0.86 0.28,0.27 0.54,0.54 0.78,0.83 -0.06,-0.87 -0.1,-1.48 -0.12,-1.84 -0.02,-0.36 -0.03,-0.64 -0.03,-0.83 v -8.13 h 3.24 v 15.48 h -2.46 l -11.36,-9.56 c -0.27,-0.24 -0.51,-0.46 -0.72,-0.66 -0.2,-0.19 -0.4,-0.4 -0.57,-0.6 0.05,0.48 0.09,0.93 0.11,1.35 0.02,0.42 0.04,0.79 0.04,1.11 v 8.36 h -3.25 z"
   id="path94" />
		<path
   class="st1"
   d="m 69.79,253.86 v -15.48 h 2.46 l 10.9,9.12 c 0.37,0.3 0.7,0.59 0.98,0.86 0.28,0.27 0.54,0.54 0.78,0.83 -0.06,-0.87 -0.1,-1.48 -0.12,-1.84 -0.02,-0.36 -0.03,-0.64 -0.03,-0.83 v -8.13 H 88 v 15.48 h -2.46 l -11.36,-9.56 c -0.27,-0.24 -0.51,-0.46 -0.72,-0.66 -0.2,-0.19 -0.4,-0.4 -0.57,-0.6 0.05,0.48 0.09,0.93 0.11,1.35 0.02,0.42 0.04,0.79 0.04,1.11 v 8.36 h -3.25 z"
   id="path96" />
		<path
   class="st1"
   d="M 101.15,253.86 V 238.38 H 117 v 2.64 h -12.24 v 3.46 h 7.15 v 2.64 h -7.15 v 3.84 h 12.39 v 2.91 h -16 z"
   id="path98" />
		<path
   class="st1"
   d="m 126.45,253.86 7.34,-7.95 -7.47,-7.53 h 4.77 l 4.95,5.26 4.7,-5.26 h 4.14 l -6.75,7.12 8.35,8.36 h -4.89 l -5.67,-6 -5.23,6 z"
   id="path100" />
		<path
   class="st1"
   d="m 154.66,253.86 v -15.48 h 15.85 v 2.64 h -12.24 v 3.46 h 7.15 v 2.64 h -7.15 v 3.84 h 12.39 v 2.91 h -16 z"
   id="path102" />
		<path
   d="m 181.18,249.22 h 0.54 c 0.26,0 0.45,0.08 0.56,0.23 0.11,0.15 0.16,0.44 0.16,0.87 v 2.43 c 0,0.47 -0.06,0.77 -0.18,0.91 -0.12,0.14 -0.48,0.21 -1.08,0.21 h -2.68 c -0.26,0 -0.45,-0.08 -0.56,-0.23 -0.11,-0.15 -0.16,-0.45 -0.16,-0.88 v -2.43 c 0,-0.46 0.06,-0.76 0.18,-0.89 0.12,-0.13 0.48,-0.21 1.08,-0.21 h 2.14 z"
   id="path104" />
		<path
   d="m 191.81,253.86 v -15.48 h 13.24 c 1.23,0 2.12,0.24 2.67,0.71 0.55,0.47 0.83,1.24 0.83,2.29 v 3.63 c 0,1.04 -0.28,1.81 -0.83,2.29 -0.55,0.48 -1.44,0.72 -2.67,0.72 h -2.02 l 7.15,5.84 h -5.17 l -6.24,-5.84 h -3.41 v 5.84 z m 11.65,-12.8 h -8.1 v 4.31 h 8.1 c 0.62,0 1.05,-0.09 1.28,-0.27 0.23,-0.18 0.34,-0.5 0.34,-0.96 v -1.86 c 0,-0.45 -0.12,-0.76 -0.34,-0.95 -0.23,-0.18 -0.66,-0.27 -1.28,-0.27 z"
   id="path106" />
		<path
   d="m 215.73,238.38 v 12.57 H 226 v -12.57 h 3.59 v 11.82 c 0,1.42 -0.26,2.38 -0.79,2.89 -0.53,0.51 -1.54,0.77 -3.05,0.77 h -9.78 c -1.49,0 -2.51,-0.26 -3.04,-0.77 -0.53,-0.51 -0.8,-1.48 -0.8,-2.89 v -11.82 z"
   id="path108" />
		<path
   d="m 234.72,253.86 v -15.48 h 15.85 v 2.64 h -12.24 v 3.46 h 7.15 v 2.64 h -7.15 v 3.84 h 12.39 v 2.91 h -16 z"
   id="path110" />
		<path
   d="m 264.35,241.15 v 12.71 h -3.6 v -12.71 h -7.1 v -2.77 h 17.84 v 2.77 z"
   id="path112" />
	</g>
</g>
<text
   style="font-size:12px;font-family:MyriadPro-Regular"
   id="text118"
   x="-334.23389"
   y="-187.8457">Text </text>
<text
   style="font-size:12px;font-family:MyriadPro-Regular"
   id="text120"
   x="116.6597"
   y="-203.16499">Object</text>
</svg>
